# ASF file generated by Tido's ASF writer for MATLAB.
:version 1.10
:name VICON
:units
  mass 1
  length 0.45000000000000001
  angle deg
:documentation
   .ast/.asf automatically generated from VICON data using
   VICON BodyBuilder and BodyLanguage model FoxedUp or BRILLIANT.MOD
:root
  axis xyz
  order tx ty tz rx ry rz 
  position 0 0 0
  orientation 0 0 0
:bonedata
  begin
    id 1
    name lhipjoint
    direction 0.44017800000000001 -0.82263900000000001 0.359871
    length 1.1390085000000001
    axis 0 0 0 xyz
  end
  begin
    id 2
    name lfemur
    direction 0.34201999999999999 -0.939693 0
    length 3.5465939999999998
    axis 0 0 20 xyz
    dof rx ry rz 
    limits (-160 20)
           (-70 70)
           (-60 70)
  end
  begin
    id 3
    name ltibia
    direction 0.34201999999999999 -0.939693 0
    length 3.7970234999999999
    axis 0 0 20 xyz
    dof rx 
    limits (-10 170)
  end
  begin
    id 4
    name lfoot
    direction 0.088635099999999994 -0.24352299999999999 0.96583699999999995
    length 1.1853629999999999
    axis -90 7.62852e-016 20 xyz
    dof rx rz 
    limits (-45 90)
           (-70 20)
  end
  begin
    id 5
    name ltoes
    direction 1.53703e-011 -4.2171700000000001e-011 1
    length 0.59142150000000004
    axis -90 7.62852e-016 20 xyz
    dof rx 
    limits (-90 20)
  end
  begin
    id 6
    name rhipjoint
    direction -0.399779 -0.83977299999999999 0.367367
    length 1.115766
    axis 0 0 0 xyz
  end
  begin
    id 7
    name rfemur
    direction -0.34201999999999999 -0.939693 0
    length 3.4866269999999999
    axis 0 0 -20 xyz
    dof rx ry rz 
    limits (-160 20)
           (-70 70)
           (-70 60)
  end
  begin
    id 8
    name rtibia
    direction -0.34201999999999999 -0.939693 0
    length 3.9349440000000002
    axis 0 0 -20 xyz
    dof rx 
    limits (-10 170)
  end
  begin
    id 9
    name rfoot
    direction -0.108514 -0.29813899999999999 0.94833400000000001
    length 1.1974590000000001
    axis -90 -7.62852e-016 -20 xyz
    dof rx rz 
    limits (-45 90)
           (-20 70)
  end
  begin
    id 10
    name rtoes
    direction -1.5339199999999999e-011 -4.2207699999999999e-011 1
    length 0.59392350000000005
    axis -90 -7.62852e-016 -20 xyz
    dof rx 
    limits (-90 20)
  end
  begin
    id 11
    name lowerback
    direction 0.011325699999999999 0.99986600000000003 0.0118602
    length 1.164123
    axis 0 0 0 xyz
    dof rx ry rz 
    limits (-20 45)
           (-30 30)
           (-30 30)
  end
  begin
    id 12
    name upperback
    direction -0.016474699999999998 0.99519299999999999 -0.096537499999999998
    length 1.135656
    axis 0 0 0 xyz
    dof rx ry rz 
    limits (-20 45)
           (-30 30)
           (-30 30)
  end
  begin
    id 13
    name thorax
    direction -0.019430099999999999 0.99433000000000005 -0.10455200000000001
    length 1.1524455
    axis 0 0 0 xyz
    dof rx ry rz 
    limits (-20 45)
           (-30 30)
           (-30 30)
  end
  begin
    id 14
    name lowerneck
    direction 0.014854300000000001 0.995587 -0.092657000000000003
    length 0.772119
    axis 0 0 0 xyz
    dof rx ry rz 
    limits (-20 45)
           (-30 30)
           (-30 30)
  end
  begin
    id 15
    name upperneck
    direction -0.0135467 0.99365599999999998 -0.111639
    length 0.76021650000000007
    axis 0 0 0 xyz
    dof rx ry rz 
    limits (-20 45)
           (-30 30)
           (-30 30)
  end
  begin
    id 16
    name head
    direction -0.0061534900000000002 0.99954699999999996 -0.029447999999999998
    length 0.78578999999999999
    axis 0 0 0 xyz
    dof rx ry rz 
    limits (-20 45)
           (-30 30)
           (-30 30)
  end
  begin
    id 17
    name lclavicle
    direction 0.98826700000000001 0.14988499999999999 0.029371299999999999
    length 2.012499
    axis 0 0 0 xyz
    dof ry rz 
    limits (-20 10)
           (0 20)
  end
  begin
    id 18
    name lhumerus
    direction 1 -4.4898600000000001e-011 -1.1483300000000001e-027
    length 2.4171659999999999
    axis 180 -30 -90 xyz
    dof rx ry rz 
    limits (-60 90)
           (-90 90)
           (-90 90)
  end
  begin
    id 19
    name lradius
    direction 0.99999800000000005 0.00170963 -0.00098705499999999992
    length 1.773954
    axis 180 -30 -90 xyz
    dof rx 
    limits (-10 170)
  end
  begin
    id 20
    name lwrist
    direction 0.99999800000000005 7.53149e-005 -0.00194706
    length 0.88697700000000002
    axis 4.6505600000000004e-015 90 90 xyz
    dof ry 
    limits (-180 0)
  end
  begin
    id 21
    name lhand
    direction 1 -4.48973e-011 -1.3174599999999999e-026
    length 0.5306265
    axis 8.4064999999999996e-015 90 90 xyz
    dof rx rz 
    limits (-90 90)
           (-45 45)
  end
  begin
    id 22
    name lfingers
    direction 1 -4.49107e-011 -2.6349199999999999e-026
    length 0.42780555000000003
    axis 1.6812999999999999e-014 90 90 xyz
    dof rx 
    limits (0 90)
  end
  begin
    id 23
    name lthumb
    direction 0.70710700000000004 -6.3504800000000005e-011 0.70710700000000004
    length 0.6142455
    axis -90 45 2.8529899999999998e-015 xyz
    dof rx rz 
    limits (-45 45)
           (-45 45)
  end
  begin
    id 24
    name rclavicle
    direction -0.996699 0.064289499999999999 -0.049572499999999999
    length 2.0817494999999999
    axis 0 0 0 xyz
    dof ry rz 
    limits (-10 20)
           (-20 0)
  end
  begin
    id 25
    name rhumerus
    direction -1 -4.4891899999999998e-011 -2.4105900000000001e-027
    length 2.474145
    axis 180 30 90 xyz
    dof rx ry rz 
    limits (-90 60)
           (-90 90)
           (-90 90)
  end
  begin
    id 26
    name rradius
    direction -0.99999899999999997 0.0011810099999999999 -0.00068185800000000003
    length 1.5677145000000001
    axis 180 30 90 xyz
    dof rx 
    limits (-10 170)
  end
  begin
    id 27
    name rwrist
    direction -0.99999899999999997 0.000321823 -0.00132288
    length 0.78385499999999997
    axis 4.6505600000000004e-015 -90 -90 xyz
    dof ry 
    limits (-180 0)
  end
  begin
    id 28
    name rhand
    direction -1 -4.4902199999999998e-011 -1.3174599999999999e-026
    length 0.60719400000000001
    axis 8.4064999999999996e-015 -90 -90 xyz
    dof rx rz 
    limits (-90 90)
           (-45 45)
  end
  begin
    id 29
    name rfingers
    direction -1 -4.4917800000000002e-011 -2.6349199999999999e-026
    length 0.48953249999999998
    axis 1.6812999999999999e-014 -90 -90 xyz
    dof rx 
    limits (0 90)
  end
  begin
    id 30
    name rthumb
    direction -0.70710700000000004 -6.3471300000000002e-011 0.70710700000000004
    length 0.70287750000000004
    axis -90 -45 -2.8529899999999998e-015 xyz
    dof rx rz 
    limits (-45 45)
           (-45 45)
  end
:hierarchy
begin
  root lhipjoint rhipjoint lowerback 
  lhipjoint lfemur 
  lfemur ltibia 
  ltibia lfoot 
  lfoot ltoes 
  rhipjoint rfemur 
  rfemur rtibia 
  rtibia rfoot 
  rfoot rtoes 
  lowerback upperback 
  upperback thorax 
  thorax lowerneck lclavicle rclavicle 
  lowerneck upperneck 
  upperneck head 
  lclavicle lhumerus 
  lhumerus lradius 
  lradius lwrist 
  lwrist lhand lthumb 
  lhand lfingers 
  rclavicle rhumerus 
  rhumerus rradius 
  rradius rwrist 
  rwrist rhand rthumb 
  rhand rfingers 
end

# AMC file generated by Tido's AMC writer for MATLAB on 27-Nov-2005 at 18:24:20
# Corresponding ASF file: S:\data_MoCap\MoCaDaDB\HDM\Bonn_ASF_AMC_Use IK_on\björn\bjorn.asf
# Number of frames: 542
# Sampling rate: 120
:fully-specified
:degrees
322
root 8.1567900000000009 8.2818000000000005 -10.712565000000001 -0.91664599999999996 42.892200000000003 359.94999999999999 
lfemur -33.384300000000003 1.56436 -11.936299999999999 
ltibia 34.452100000000002 
lfoot -1.51041 -10.3826 
ltoes -27.008800000000001 
rfemur 19.729600000000001 3.7912599999999999 20.915800000000001 
rtibia 21.626899999999999 
rfoot -3.4217499999999998 29.209900000000001 
rtoes 18.187999999999999 
lowerback -2.65964 3.3274599999999999 1.36802 
upperback 10.2768 4.90686 -2.8599399999999999 
thorax 13.0185 2.7760600000000002 -3.1805099999999999 
lowerneck 2.2721900000000002 -7.3330000000000002 0.13900999999999999 
upperneck 11.108599999999999 -10.641 10.7743 
head 3.5194299999999998 -4.8079900000000002 2.9612400000000001 
lclavicle 2.7631099999999999e-014 -8.7465300000000005e-015 
lhumerus -28.1373 18.322399999999998 80.875399999999999 
lradius 7.4389000000000003 
lwrist -61.798999999999999 
lhand -12.494199999999999 -4.9062700000000001 
lfingers 7.1250200000000001 
lthumb 13.5807 24.630800000000001 
rclavicle 2.7631099999999999e-014 -8.7465300000000005e-015 
rhumerus -23.9956 -0.70349600000000001 -94.253100000000003 
rradius 77.931200000000004 
rwrist 1.71628 
rhand -22.831299999999999 19.173300000000001 
rfingers 7.1250200000000001 
rthumb 3.6060300000000001 -10.7759 
323
root 8.2299600000000002 8.2816650000000003 -10.663245000000002 -0.73005200000000003 42.508800000000001 360.298 
lfemur -33.188400000000001 1.2442 -12.1911 
ltibia 35.408799999999999 
lfoot -1.0914699999999999 -10.269 
ltoes -26.353999999999999 
rfemur 19.8154 4.1102999999999996 20.516100000000002 
rtibia 22.3919 
rfoot -2.4554999999999998 28.903300000000002 
rtoes 17.404499999999999 
lowerback -2.65286 3.3131599999999999 0.94222099999999998 
upperback 10.2653 4.9403899999999998 -2.9942099999999998 
thorax 12.976100000000001 2.75759 -3.0866699999999998 
lowerneck 2.1185100000000001 -7.2556399999999996 0.107473 
upperneck 11.351000000000001 -10.5715 10.802300000000001 
head 3.6168100000000001 -4.7574500000000004 2.96759 
lclavicle 3.04141e-014 -2.14687e-014 
lhumerus -27.451799999999999 19.655999999999999 80.016999999999996 
lradius 6.9547999999999996 
lwrist -62.188600000000001 
lhand -12.8233 -4.0620399999999997 
lfingers 7.1250200000000001 
lthumb 13.263500000000001 25.495899999999999 
rclavicle 3.04141e-014 -2.14687e-014 
rhumerus -24.106100000000001 -0.98305900000000002 -94.325599999999994 
rradius 75.994699999999995 
rwrist 1.68479 
rhand -22.161799999999999 18.6812 
rfingers 7.1250200000000001 
rthumb 4.2525300000000001 -11.2561 
324
root 8.3032649999999997 8.2826550000000001 -10.61397 -0.53892799999999996 42.134300000000003 360.642 
lfemur -32.994999999999997 1.0041500000000001 -12.479200000000001 
ltibia 36.361600000000003 
lfoot -0.80943900000000002 -10.103199999999999 
ltoes -25.4803 
rfemur 19.772099999999998 4.4846899999999996 20.142499999999998 
rtibia 23.324000000000002 
rfoot -1.30626 28.588200000000001 
rtoes 16.646799999999999 
lowerback -2.64351 3.3108 0.53381199999999995 
upperback 10.235900000000001 4.9884399999999998 -3.1387299999999998 
thorax 12.9154 2.7484000000000002 -3.0120900000000002 
lowerneck 1.9734100000000001 -7.1981200000000003 0.063463599999999995 
upperneck 11.6111 -10.534800000000001 10.884 
head 3.7235100000000001 -4.7205000000000004 2.9912899999999998 
lclavicle 2.92213e-014 2.7034699999999999e-014 
lhumerus -26.6265 21.104500000000002 79.463800000000006 
lradius 6.3009899999999996 
lwrist -62.445500000000003 
lhand -13.304600000000001 -3.1191 
lfingers 7.1250200000000001 
lthumb 12.7996 26.468499999999999 
rclavicle 2.92213e-014 2.7034699999999999e-014 
rhumerus -24.259699999999999 -1.42076 -94.323499999999996 
rradius 73.960899999999995 
rwrist 1.72088 
rhand -21.327200000000001 18.419899999999998 
rfingers 7.1250200000000001 
rthumb 5.0584600000000002 -11.499700000000001 
325
root 8.3764350000000007 8.28477 -10.56429 -0.41112300000000002 41.756599999999999 360.89699999999999 
lfemur -32.7821 0.80755500000000002 -12.7125 
ltibia 37.2986 
lfoot -0.70924500000000001 -9.8773700000000009 
ltoes -24.2972 
rfemur 19.634599999999999 4.8590600000000004 19.8398 
rtibia 24.393999999999998 
rfoot 0.21432000000000001 28.2242 
rtoes 16.2028 
lowerback -2.6614499999999999 3.3052899999999998 0.161913 
upperback 10.2287 5.0253500000000004 -3.2382300000000002 
thorax 12.895799999999999 2.7347899999999998 -2.9082599999999998 
lowerneck 1.7313000000000001 -7.1414499999999999 0.077315499999999995 
upperneck 11.926500000000001 -10.497299999999999 10.836499999999999 
head 3.8539099999999999 -4.6802599999999996 2.9624999999999999 
lclavicle -1.66979e-014 2.3058999999999999e-014 
lhumerus -25.902000000000001 22.4573 78.713800000000006 
lradius 5.9045800000000002 
lwrist -62.527900000000002 
lhand -13.605600000000001 -2.62371 
lfingers 7.1250200000000001 
lthumb 12.509399999999999 26.9819 
rclavicle -1.66979e-014 2.3058999999999999e-014 
rhumerus -24.4391 -1.7247699999999999 -94.293499999999995 
rradius 71.960999999999999 
rwrist 1.29969 
rhand -20.563700000000001 18.1309 
rfingers 7.1250200000000001 
rthumb 5.7956399999999997 -11.7699 
326
root 8.4488850000000006 8.2873350000000006 -10.515105 -0.28186299999999997 41.4133 361.17500000000001 
lfemur -32.534100000000002 0.73056200000000004 -13.0105 
ltibia 38.190600000000003 
lfoot -0.77540100000000001 -9.7629999999999999 
ltoes -22.8155 
rfemur 19.406300000000002 5.2443499999999998 19.531500000000001 
rtibia 25.603200000000001 
rfoot 2.1349800000000001 27.724699999999999 
rtoes 16.390799999999999 
lowerback -2.6810999999999998 3.2856200000000002 -0.24618799999999999 
upperback 10.2525 5.0452500000000002 -3.3068399999999998 
thorax 12.905900000000001 2.7077800000000001 -2.7524600000000001 
lowerneck 1.5095499999999999 -7.0788000000000002 -0.021419500000000001 
upperneck 12.142099999999999 -10.449 10.867599999999999 
head 3.9594800000000001 -4.6424000000000003 2.9778699999999998 
lclavicle 7.5538200000000001e-015 3.18055e-015 
lhumerus -25.1676 23.852900000000002 78.055499999999995 
lradius 5.5829700000000004 
lwrist -62.438099999999999 
lhand -13.9087 -2.3086899999999999 
lfingers 7.1250200000000001 
lthumb 12.2171 27.314499999999999 
rclavicle 7.5538200000000001e-015 3.18055e-015 
rhumerus -24.477900000000002 -2.0578099999999999 -94.327299999999994 
rradius 69.758099999999999 
rwrist 0.83006999999999997 
rhand -19.907 17.959199999999999 
rfingers 7.1250200000000001 
rthumb 6.4296100000000003 -11.9232 
327
root 8.5212000000000003 8.2899000000000012 -10.46565 -0.20505899999999999 41.0261 361.39699999999999 
lfemur -32.223399999999998 0.78202799999999995 -13.2913 
ltibia 39.017099999999999 
lfoot -1.0396700000000001 -9.7053899999999995 
ltoes -21.641999999999999 
rfemur 19.091100000000001 5.64825 19.257100000000001 
rtibia 26.941500000000001 
rfoot 4.3240499999999997 27.077100000000002 
rtoes 16.976299999999998 
lowerback -2.6834099999999999 3.2931900000000001 -0.57642199999999999 
upperback 10.2553 5.0956400000000004 -3.3948499999999999 
thorax 12.8926 2.70452 -2.65821 
lowerneck 1.3210500000000001 -7.0303399999999998 -0.019433300000000001 
upperneck 12.399900000000001 -10.418799999999999 10.867800000000001 
head 4.0673599999999999 -4.6087800000000003 2.96854 
lclavicle 5.7249999999999996e-014 -4.1347200000000001e-014 
lhumerus -24.4559 25.211400000000001 77.391199999999998 
lradius 5.3088199999999999 
lwrist -62.355699999999999 
lhand -14.193899999999999 -2.0800100000000001 
lfingers 7.1250200000000001 
lthumb 11.9421 27.5594 
rclavicle 5.7249999999999996e-014 -4.1347200000000001e-014 
rhumerus -24.557500000000001 -2.3952599999999999 -94.300399999999996 
rradius 67.522900000000007 
rwrist 0.19375999999999999 
rhand -19.143000000000001 17.521599999999999 
rfingers 7.1250200000000001 
rthumb 7.1671100000000001 -12.3371 
